<svg viewBox="0 0 204 49" fill="none" xmlns="http://www.w3.org/2000/svg">
<path d="M30.1364 15.5C30.2576 13.7879 29.803 12.4621 28.7727 11.5227C27.7576 10.5833 26.1515 10.1136 23.9545 10.1136C22.5 10.1136 21.2576 10.303 20.2273 10.6818C19.197 11.0455 18.3864 11.5606 17.7955 12.2273C17.2045 12.8788 16.8333 13.6364 16.6818 14.5C16.5455 15.1818 16.5833 15.7879 16.7955 16.3182C17.0076 16.8485 17.3788 17.3182 17.9091 17.7273C18.4545 18.1364 19.1288 18.4924 19.9318 18.7955C20.75 19.0985 21.6667 19.3636 22.6818 19.5909L26.5 20.5C28.7121 21 30.6288 21.6667 32.25 22.5C33.8864 23.3182 35.2121 24.3106 36.2273 25.4773C37.2424 26.6288 37.9394 27.9545 38.3182 29.4545C38.697 30.9545 38.7273 32.6364 38.4091 34.5C37.9242 37.4394 36.7652 39.9621 34.9318 42.0682C33.1136 44.1742 30.7349 45.7879 27.7955 46.9091C24.8712 48.0303 21.4697 48.5909 17.5909 48.5909C13.7121 48.5909 10.4167 48.0076 7.70455 46.8409C5.00758 45.6591 3.05303 43.8788 1.84091 41.5C0.628788 39.1212 0.30303 36.1212 0.863636 32.5H11.6136C11.447 34 11.6364 35.25 12.1818 36.25C12.7424 37.25 13.6061 38.0076 14.7727 38.5227C15.9394 39.0379 17.3485 39.2955 19 39.2955C20.5152 39.2955 21.8409 39.0909 22.9773 38.6818C24.1288 38.2727 25.0455 37.7045 25.7273 36.9773C26.4242 36.25 26.8485 35.4167 27 34.4773C27.1515 33.6136 27.0076 32.8636 26.5682 32.2273C26.1439 31.5909 25.4167 31.0379 24.3864 30.5682C23.3712 30.0985 22.0379 29.6742 20.3864 29.2955L15.7273 28.1591C11.8788 27.2197 8.96212 25.7197 6.97727 23.6591C5.00758 21.5985 4.31061 18.803 4.88636 15.2727C5.37121 12.3788 6.56818 9.84848 8.47727 7.68182C10.4015 5.51515 12.8333 3.83333 15.7727 2.63636C18.7273 1.42424 21.9773 0.81818 25.5227 0.81818C29.1288 0.81818 32.1591 1.43182 34.6136 2.65909C37.0833 3.87121 38.8636 5.58333 39.9545 7.79545C41.0606 9.99242 41.3788 12.5606 40.9091 15.5H30.1364ZM75.83 1.45454H87.0573L82.08 31.4773C81.5042 34.947 80.1785 37.9697 78.1027 40.5455C76.0421 43.1061 73.4133 45.0909 70.2164 46.5C67.0194 47.8939 63.4588 48.5909 59.5345 48.5909C55.5952 48.5909 52.2694 47.8939 49.5573 46.5C46.8452 45.0909 44.883 43.1061 43.6709 40.5455C42.4588 37.9697 42.133 34.947 42.6936 31.4773L47.6709 1.45454H58.9209L54.08 30.5C53.8224 32.1061 53.9436 33.5379 54.4436 34.7955C54.9588 36.0379 55.7921 37.0227 56.9436 37.75C58.0952 38.4621 59.5042 38.8182 61.1709 38.8182C62.8527 38.8182 64.3906 38.4621 65.7845 37.75C67.1785 37.0227 68.33 36.0379 69.2391 34.7955C70.1482 33.5379 70.7315 32.1061 70.9891 30.5L75.83 1.45454ZM84.4611 48L92.1884 1.45454H111.416C114.901 1.45454 117.802 2.12879 120.12 3.47727C122.438 4.82576 124.082 6.71212 125.052 9.13636C126.022 11.5606 126.241 14.3712 125.711 17.5682C125.196 20.7955 124.037 23.6061 122.234 26C120.446 28.3939 118.143 30.25 115.325 31.5682C112.507 32.8864 109.302 33.5455 105.711 33.5455H93.8702L95.3475 24.6818H105.12C106.832 24.6818 108.31 24.3864 109.552 23.7955C110.81 23.2045 111.817 22.3788 112.575 21.3182C113.332 20.2576 113.832 19.0076 114.075 17.5682C114.302 16.1288 114.211 14.8864 113.802 13.8409C113.393 12.7803 112.658 11.9621 111.598 11.3864C110.552 10.8106 109.188 10.5227 107.507 10.5227H101.961L95.7111 48H84.4611ZM124.229 48L131.956 1.45454H164.41L162.865 10.5909H141.66L140.115 20.1364H159.66L158.115 29.2955H138.57L137.024 38.8636H158.229L156.683 48H124.229ZM161.809 48L169.536 1.45454H188.763C192.248 1.45454 195.157 2.08333 197.49 3.34091C199.824 4.58333 201.483 6.37121 202.468 8.70454C203.453 11.0227 203.68 13.7727 203.15 16.9545C202.634 20.1667 201.483 22.9015 199.695 25.1591C197.922 27.4015 195.634 29.1136 192.831 30.2955C190.043 31.4773 186.877 32.0682 183.331 32.0682H171.172L172.672 23.2045H182.74C184.422 23.2045 185.877 22.9848 187.104 22.5455C188.331 22.0909 189.309 21.4091 190.036 20.5C190.778 19.5758 191.271 18.3939 191.513 16.9545C191.74 15.5151 191.634 14.3258 191.195 13.3864C190.771 12.4318 190.021 11.7197 188.945 11.25C187.884 10.7652 186.521 10.5227 184.854 10.5227H179.309L173.059 48H161.809ZM191.536 26.7273L199.604 48H187.331L179.513 26.7273H191.536Z" fill="#111112"/>
</svg>
